Solitreo-700.ufo
<glyph name="numbersign" format="2">
	<advance width="496"/>
	<unicode hex="0023"/>
	<outline>
		<contour>
			<point x="22" y="35" type="curve" smooth="yes"/>
			<point x="22" y="35"/>
			<point x="22" y="35"/>
			<point x="22" y="35" type="curve" smooth="yes"/>
			<point x="5" y="35"/>
			<point x="2" y="40"/>
			<point x="2" y="49" type="curve" smooth="yes"/>
			<point x="2" y="51"/>
			<point x="2" y="53"/>
			<point x="2" y="56" type="curve" smooth="yes"/>
			<point x="3" y="65"/>
			<point x="28" y="130"/>
			<point x="60" y="222" type="curve"/>
			<point x="34" y="224"/>
			<point x="16" y="228"/>
			<point x="11" y="234" type="curve" smooth="yes"/>
			<point x="2" y="242"/>
			<point x="-2" y="251"/>
			<point x="-2" y="259" type="curve" smooth="yes"/>
			<point x="-2" y="267"/>
			<point x="2" y="273"/>
			<point x="10" y="275" type="curve" smooth="yes"/>
			<point x="14" y="276"/>
			<point x="23" y="276"/>
			<point x="36" y="276" type="curve" smooth="yes"/>
			<point x="47" y="276"/>
			<point x="62" y="276"/>
			<point x="78" y="276" type="curve"/>
			<point x="91" y="313"/>
			<point x="104" y="352"/>
			<point x="117" y="393" type="curve"/>
			<point x="91" y="396"/>
			<point x="73" y="400"/>
			<point x="67" y="405" type="curve" smooth="yes"/>
			<point x="59" y="414"/>
			<point x="54" y="423"/>
			<point x="54" y="430" type="curve" smooth="yes"/>
			<point x="54" y="438"/>
			<point x="59" y="444"/>
			<point x="67" y="446" type="curve" smooth="yes"/>
			<point x="71" y="447"/>
			<point x="80" y="448"/>
			<point x="92" y="448" type="curve" smooth="yes"/>
			<point x="103" y="448"/>
			<point x="117" y="448"/>
			<point x="133" y="447" type="curve"/>
			<point x="150" y="506"/>
			<point x="166" y="567"/>
			<point x="179" y="625" type="curve" smooth="yes"/>
			<point x="184" y="649"/>
			<point x="202" y="649"/>
			<point x="224" y="649" type="curve" smooth="yes"/>
			<point x="225" y="649"/>
			<point x="225" y="649"/>
			<point x="226" y="649" type="curve" smooth="yes"/>
			<point x="248" y="649"/>
			<point x="263" y="649"/>
			<point x="263" y="628" type="curve" smooth="yes"/>
			<point x="263" y="601"/>
			<point x="244" y="530"/>
			<point x="217" y="446" type="curve"/>
			<point x="253" y="446"/>
			<point x="292" y="447"/>
			<point x="330" y="451" type="curve"/>
			<point x="347" y="508"/>
			<point x="362" y="566"/>
			<point x="374" y="623" type="curve" smooth="yes"/>
			<point x="379" y="646"/>
			<point x="397" y="647"/>
			<point x="420" y="647" type="curve" smooth="yes"/>
			<point x="421" y="647"/>
			<point x="421" y="647"/>
			<point x="422" y="647" type="curve" smooth="yes"/>
			<point x="443" y="647"/>
			<point x="459" y="647"/>
			<point x="459" y="625" type="curve" smooth="yes"/>
			<point x="459" y="600"/>
			<point x="443" y="539"/>
			<point x="419" y="466" type="curve"/>
			<point x="428" y="468"/>
			<point x="436" y="470"/>
			<point x="443" y="473" type="curve" smooth="yes"/>
			<point x="445" y="473"/>
			<point x="447" y="474"/>
			<point x="449" y="474" type="curve" smooth="yes"/>
			<point x="459" y="474"/>
			<point x="472" y="465"/>
			<point x="481" y="448" type="curve" smooth="yes"/>
			<point x="485" y="440"/>
			<point x="487" y="434"/>
			<point x="487" y="428" type="curve" smooth="yes"/>
			<point x="487" y="417"/>
			<point x="480" y="410"/>
			<point x="472" y="407" type="curve" smooth="yes"/>
			<point x="460" y="403"/>
			<point x="432" y="399"/>
			<point x="396" y="396" type="curve"/>
			<point x="384" y="362"/>
			<point x="372" y="327"/>
			<point x="358" y="293" type="curve"/>
			<point x="368" y="295"/>
			<point x="378" y="298"/>
			<point x="387" y="301" type="curve" smooth="yes"/>
			<point x="388" y="302"/>
			<point x="390" y="302"/>
			<point x="392" y="302" type="curve" smooth="yes"/>
			<point x="402" y="302"/>
			<point x="415" y="294"/>
			<point x="425" y="276" type="curve" smooth="yes"/>
			<point x="428" y="269"/>
			<point x="430" y="262"/>
			<point x="430" y="257" type="curve" smooth="yes"/>
			<point x="430" y="246"/>
			<point x="423" y="239"/>
			<point x="415" y="236" type="curve" smooth="yes"/>
			<point x="402" y="232"/>
			<point x="370" y="227"/>
			<point x="331" y="224" type="curve"/>
			<point x="286" y="118"/>
			<point x="241" y="32"/>
			<point x="217" y="32" type="curve" smooth="yes"/>
			<point x="217" y="32"/>
			<point x="217" y="32"/>
			<point x="217" y="32" type="curve" smooth="yes"/>
			<point x="200" y="32"/>
			<point x="197" y="38"/>
			<point x="197" y="46" type="curve" smooth="yes"/>
			<point x="197" y="48"/>
			<point x="197" y="50"/>
			<point x="198" y="53" type="curve" smooth="yes"/>
			<point x="198" y="62"/>
			<point x="223" y="128"/>
			<point x="256" y="220" type="curve"/>
			<point x="225" y="219"/>
			<point x="193" y="218"/>
			<point x="163" y="218" type="curve" smooth="yes"/>
			<point x="152" y="218"/>
			<point x="142" y="218"/>
			<point x="132" y="218" type="curve"/>
			<point x="88" y="116"/>
			<point x="45" y="35"/>
		</contour>
		<contour>
			<point x="197" y="389" type="curve"/>
			<point x="184" y="351"/>
			<point x="170" y="312"/>
			<point x="155" y="275" type="curve"/>
			<point x="193" y="275"/>
			<point x="236" y="276"/>
			<point x="276" y="280" type="curve"/>
			<point x="288" y="315"/>
			<point x="300" y="352"/>
			<point x="312" y="391" type="curve"/>
			<point x="282" y="390"/>
			<point x="250" y="389"/>
			<point x="220" y="389" type="curve" smooth="yes"/>
			<point x="212" y="389"/>
			<point x="205" y="389"/>
		</contour>
	</outline>
</glyph>
<glyph name="percent" format="2">
	<advance width="515"/>
	<unicode hex="0025"/>
	<outline>
		<contour>
			<point x="330" y="42" type="curve" smooth="yes"/>
			<point x="342" y="43"/>
			<point x="410" y="54"/>
			<point x="423" y="150" type="curve" smooth="yes"/>
			<point x="424" y="154"/>
			<point x="424" y="158"/>
			<point x="424" y="162" type="curve" smooth="yes"/>
			<point x="424" y="192"/>
			<point x="407" y="215"/>
			<point x="380" y="215" type="curve" smooth="yes"/>
			<point x="337" y="215"/>
			<point x="291" y="164"/>
			<point x="287" y="96" type="curve" smooth="yes"/>
			<point x="287" y="94"/>
			<point x="287" y="92"/>
			<point x="287" y="90" type="curve" smooth="yes"/>
			<point x="287" y="59"/>
			<point x="302" y="42"/>
			<point x="325" y="42" type="curve" smooth="yes"/>
			<point x="327" y="42"/>
			<point x="328" y="42"/>
		</contour>
		<contour>
			<point x="391" y="255" type="curve" smooth="yes"/>
			<point x="470" y="255"/>
			<point x="502" y="213"/>
			<point x="502" y="162" type="curve" smooth="yes"/>
			<point x="502" y="158"/>
			<point x="501" y="154"/>
			<point x="501" y="150" type="curve" smooth="yes"/>
			<point x="492" y="55"/>
			<point x="418" y="1"/>
			<point x="328" y="1" type="curve" smooth="yes"/>
			<point x="256" y="1"/>
			<point x="228" y="41"/>
			<point x="228" y="95" type="curve" smooth="yes"/>
			<point x="228" y="99"/>
			<point x="228" y="102"/>
			<point x="229" y="106" type="curve" smooth="yes"/>
			<point x="234" y="197"/>
			<point x="295" y="255"/>
		</contour>
		<contour>
			<point x="86" y="418" type="curve" smooth="yes"/>
			<point x="98" y="420"/>
			<point x="167" y="430"/>
			<point x="179" y="526" type="curve" smooth="yes"/>
			<point x="180" y="530"/>
			<point x="180" y="534"/>
			<point x="180" y="538" type="curve" smooth="yes"/>
			<point x="180" y="568"/>
			<point x="164" y="592"/>
			<point x="136" y="592" type="curve" smooth="yes"/>
			<point x="93" y="592"/>
			<point x="47" y="540"/>
			<point x="44" y="472" type="curve" smooth="yes"/>
			<point x="44" y="470"/>
			<point x="43" y="468"/>
			<point x="43" y="467" type="curve" smooth="yes"/>
			<point x="43" y="436"/>
			<point x="58" y="418"/>
			<point x="81" y="418" type="curve" smooth="yes"/>
			<point x="83" y="418"/>
			<point x="85" y="418"/>
		</contour>
		<contour>
			<point x="258" y="529" type="curve"/>
			<point x="258" y="528"/>
			<point x="257" y="527"/>
			<point x="257" y="526" type="curve" smooth="yes"/>
			<point x="248" y="432"/>
			<point x="174" y="377"/>
			<point x="84" y="377" type="curve" smooth="yes"/>
			<point x="13" y="377"/>
			<point x="-15" y="418"/>
			<point x="-15" y="472" type="curve" smooth="yes"/>
			<point x="-15" y="475"/>
			<point x="-15" y="479"/>
			<point x="-15" y="482" type="curve" smooth="yes"/>
			<point x="-9" y="573"/>
			<point x="52" y="631"/>
			<point x="147" y="631" type="curve" smooth="yes"/>
			<point x="190" y="631"/>
			<point x="218" y="619"/>
			<point x="236" y="600" type="curve" smooth="yes"/>
			<point x="253" y="583"/>
			<point x="292" y="567"/>
			<point x="327" y="567" type="curve" smooth="yes"/>
			<point x="347" y="567"/>
			<point x="365" y="572"/>
			<point x="378" y="584" type="curve" smooth="yes"/>
			<point x="385" y="591"/>
			<point x="390" y="595"/>
			<point x="395" y="597" type="curve" smooth="yes"/>
			<point x="397" y="598"/>
			<point x="399" y="598"/>
			<point x="402" y="598" type="curve" smooth="yes"/>
			<point x="412" y="598"/>
			<point x="423" y="593"/>
			<point x="423" y="584" type="curve" smooth="yes"/>
			<point x="423" y="582"/>
			<point x="422" y="580"/>
			<point x="421" y="578" type="curve" smooth="yes"/>
			<point x="307" y="343"/>
			<point x="248" y="274"/>
			<point x="151" y="21" type="curve" smooth="yes"/>
			<point x="145" y="4"/>
			<point x="131" y="0"/>
			<point x="115" y="0" type="curve" smooth="yes"/>
			<point x="110" y="0"/>
			<point x="105" y="1"/>
			<point x="99" y="1" type="curve" smooth="yes"/>
			<point x="98" y="1"/>
			<point x="98" y="1"/>
			<point x="97" y="1" type="curve" smooth="yes"/>
			<point x="78" y="3"/>
			<point x="60" y="5"/>
			<point x="60" y="20" type="curve" smooth="yes"/>
			<point x="60" y="22"/>
			<point x="61" y="25"/>
			<point x="61" y="28" type="curve" smooth="yes"/>
			<point x="112" y="207"/>
			<point x="263" y="430"/>
			<point x="327" y="522" type="curve"/>
			<point x="325" y="522"/>
			<point x="322" y="522"/>
			<point x="319" y="522" type="curve" smooth="yes"/>
			<point x="292" y="522"/>
			<point x="274" y="524"/>
		</contour>
	</outline>
</glyph>
<glyph name="asterisk" format="2">
	<advance width="317"/>
	<unicode hex="002A"/>
	<outline>
		<contour>
			<point x="259" y="461" type="curve" smooth="yes"/>
			<point x="260" y="461"/>
			<point x="262" y="461"/>
			<point x="264" y="461" type="curve" smooth="yes"/>
			<point x="274" y="461"/>
			<point x="288" y="453"/>
			<point x="297" y="435" type="curve" smooth="yes"/>
			<point x="301" y="428"/>
			<point x="302" y="421"/>
			<point x="302" y="416" type="curve" smooth="yes"/>
			<point x="302" y="405"/>
			<point x="295" y="398"/>
			<point x="287" y="395" type="curve" smooth="yes"/>
			<point x="271" y="390"/>
			<point x="242" y="385"/>
			<point x="210" y="382" type="curve"/>
			<point x="237" y="350"/>
			<point x="258" y="326"/>
			<point x="261" y="318" type="curve" smooth="yes"/>
			<point x="261" y="316"/>
			<point x="262" y="315"/>
			<point x="262" y="313" type="curve" smooth="yes"/>
			<point x="262" y="313"/>
			<point x="262" y="313"/>
			<point x="262" y="313" type="curve" smooth="yes"/>
			<point x="262" y="303"/>
			<point x="252" y="295"/>
			<point x="237" y="294" type="curve" smooth="yes"/>
			<point x="237" y="294"/>
			<point x="237" y="294"/>
			<point x="236" y="294" type="curve" smooth="yes"/>
			<point x="233" y="294"/>
			<point x="230" y="295"/>
			<point x="227" y="295" type="curve" smooth="yes"/>
			<point x="212" y="298"/>
			<point x="183" y="322"/>
			<point x="152" y="351" type="curve"/>
			<point x="150" y="348"/>
			<point x="149" y="346"/>
			<point x="147" y="343" type="curve" smooth="yes"/>
			<point x="120" y="301"/>
			<point x="98" y="279"/>
			<point x="82" y="279" type="curve" smooth="yes"/>
			<point x="61" y="279"/>
			<point x="61" y="286"/>
			<point x="61" y="298" type="curve" smooth="yes"/>
			<point x="61" y="306"/>
			<point x="73" y="333"/>
			<point x="92" y="381" type="curve"/>
			<point x="65" y="383"/>
			<point x="44" y="387"/>
			<point x="35" y="394" type="curve" smooth="yes"/>
			<point x="23" y="402"/>
			<point x="17" y="411"/>
			<point x="17" y="420" type="curve" smooth="yes"/>
			<point x="17" y="426"/>
			<point x="20" y="431"/>
			<point x="27" y="434" type="curve" smooth="yes"/>
			<point x="32" y="437"/>
			<point x="40" y="437"/>
			<point x="49" y="437" type="curve" smooth="yes"/>
			<point x="56" y="437"/>
			<point x="63" y="437"/>
			<point x="71" y="437" type="curve"/>
			<point x="57" y="452"/>
			<point x="47" y="466"/>
			<point x="40" y="475" type="curve" smooth="yes"/>
			<point x="38" y="479"/>
			<point x="36" y="483"/>
			<point x="36" y="488" type="curve" smooth="yes"/>
			<point x="36" y="496"/>
			<point x="42" y="506"/>
			<point x="57" y="513" type="curve" smooth="yes"/>
			<point x="69" y="519"/>
			<point x="78" y="521"/>
			<point x="86" y="521" type="curve" smooth="yes"/>
			<point x="100" y="521"/>
			<point x="107" y="514"/>
			<point x="111" y="509" type="curve" smooth="yes"/>
			<point x="117" y="500"/>
			<point x="123" y="491"/>
			<point x="129" y="483" type="curve"/>
			<point x="134" y="496"/>
			<point x="138" y="510"/>
			<point x="141" y="523" type="curve" smooth="yes"/>
			<point x="148" y="546"/>
			<point x="169" y="548"/>
			<point x="191" y="548" type="curve" smooth="yes"/>
			<point x="193" y="548"/>
			<point x="193" y="548"/>
			<point x="194" y="548" type="curve" smooth="yes"/>
			<point x="216" y="548"/>
			<point x="232" y="548"/>
			<point x="232" y="524" type="curve" smooth="yes"/>
			<point x="232" y="510"/>
			<point x="220" y="480"/>
			<point x="204" y="445" type="curve"/>
			<point x="221" y="449"/>
			<point x="239" y="454"/>
		</contour>
	</outline>
</glyph>
<glyph name="zero" format="2">
	<advance width="454"/>
	<unicode hex="0030"/>
	<outline>
		<contour>
			<point x="235" y="544" type="curve" smooth="yes"/>
			<point x="237" y="544"/>
			<point x="239" y="544"/>
			<point x="241" y="544" type="curve" smooth="yes"/>
			<point x="357" y="534"/>
			<point x="400" y="443"/>
			<point x="400" y="339" type="curve" smooth="yes"/>
			<point x="400" y="327"/>
			<point x="400" y="315"/>
			<point x="399" y="303" type="curve" smooth="yes"/>
			<point x="386" y="160"/>
			<point x="298" y="0"/>
			<point x="163" y="0" type="curve" smooth="yes"/>
			<point x="151" y="0"/>
			<point x="138" y="1"/>
			<point x="124" y="4" type="curve" smooth="yes"/>
			<point x="16" y="28"/>
			<point x="-12" y="109"/>
			<point x="-12" y="202" type="curve" smooth="yes"/>
			<point x="-12" y="218"/>
			<point x="-12" y="234"/>
			<point x="-10" y="251" type="curve" smooth="yes"/>
			<point x="2" y="394"/>
			<point x="79" y="545"/>
			<point x="222" y="545" type="curve" smooth="yes"/>
			<point x="227" y="545"/>
			<point x="231" y="545"/>
		</contour>
		<contour>
			<point x="143" y="52" type="curve" smooth="yes"/>
			<point x="147" y="51"/>
			<point x="150" y="51"/>
			<point x="154" y="51" type="curve" smooth="yes"/>
			<point x="242" y="51"/>
			<point x="297" y="199"/>
			<point x="308" y="323" type="curve" smooth="yes"/>
			<point x="310" y="340"/>
			<point x="310" y="357"/>
			<point x="310" y="372" type="curve" smooth="yes"/>
			<point x="310" y="440"/>
			<point x="294" y="491"/>
			<point x="244" y="501" type="curve" smooth="yes"/>
			<point x="239" y="502"/>
			<point x="234" y="503"/>
			<point x="229" y="503" type="curve" smooth="yes"/>
			<point x="143" y="503"/>
			<point x="85" y="349"/>
			<point x="74" y="226" type="curve" smooth="yes"/>
			<point x="73" y="209"/>
			<point x="72" y="192"/>
			<point x="72" y="177" type="curve" smooth="yes"/>
			<point x="72" y="112"/>
			<point x="87" y="59"/>
		</contour>
	</outline>
</glyph>
<glyph name="one" format="2">
	<advance width="317"/>
	<unicode hex="0031"/>
	<outline>
		<contour>
			<point x="267" y="558" type="curve" smooth="yes"/>
			<point x="279" y="576"/>
			<point x="284" y="585"/>
			<point x="293" y="588" type="curve" smooth="yes"/>
			<point x="295" y="589"/>
			<point x="297" y="589"/>
			<point x="299" y="590" type="curve" smooth="yes"/>
			<point x="299" y="590"/>
			<point x="300" y="590"/>
			<point x="300" y="590" type="curve" smooth="yes"/>
			<point x="309" y="590"/>
			<point x="318" y="585"/>
			<point x="318" y="577" type="curve" smooth="yes"/>
			<point x="318" y="577"/>
			<point x="318" y="576"/>
			<point x="318" y="576" type="curve" smooth="yes"/>
			<point x="318" y="575"/>
			<point x="318" y="573"/>
			<point x="317" y="571" type="curve" smooth="yes"/>
			<point x="291" y="502"/>
			<point x="190" y="258"/>
			<point x="113" y="8" type="curve" smooth="yes"/>
			<point x="108" y="-9"/>
			<point x="94" y="-14"/>
			<point x="79" y="-16" type="curve" smooth="yes"/>
			<point x="74" y="-16"/>
			<point x="68" y="-16"/>
			<point x="63" y="-16" type="curve" smooth="yes"/>
			<point x="62" y="-16"/>
			<point x="62" y="-16"/>
			<point x="62" y="-16" type="curve" smooth="yes"/>
			<point x="61" y="-16"/>
			<point x="61" y="-16"/>
			<point x="61" y="-16" type="curve" smooth="yes"/>
			<point x="41" y="-16"/>
			<point x="24" y="-16"/>
			<point x="23" y="1" type="curve" smooth="yes"/>
			<point x="23" y="2"/>
			<point x="23" y="3"/>
			<point x="23" y="4" type="curve" smooth="yes"/>
			<point x="23" y="5"/>
			<point x="23" y="6"/>
			<point x="23" y="7" type="curve" smooth="yes"/>
			<point x="27" y="53"/>
			<point x="97" y="250"/>
			<point x="164" y="383" type="curve"/>
			<point x="111" y="338"/>
			<point x="59" y="304"/>
			<point x="37" y="298" type="curve" smooth="yes"/>
			<point x="35" y="297"/>
			<point x="33" y="297"/>
			<point x="31" y="297" type="curve" smooth="yes"/>
			<point x="30" y="297"/>
			<point x="29" y="296"/>
			<point x="28" y="296" type="curve" smooth="yes"/>
			<point x="17" y="296"/>
			<point x="11" y="303"/>
			<point x="10" y="311" type="curve" smooth="yes"/>
			<point x="10" y="312"/>
			<point x="10" y="312"/>
			<point x="10" y="313" type="curve" smooth="yes"/>
			<point x="10" y="316"/>
			<point x="11" y="319"/>
			<point x="13" y="323" type="curve" smooth="yes"/>
			<point x="22" y="342"/>
			<point x="148" y="386"/>
		</contour>
	</outline>
</glyph>
<glyph name="two" format="2">
	<advance width="459"/>
	<unicode hex="0032"/>
	<outline>
		<contour>
			<point x="280" y="548" type="curve" smooth="yes"/>
			<point x="288" y="548"/>
			<point x="296" y="549"/>
			<point x="304" y="549" type="curve" smooth="yes"/>
			<point x="381" y="549"/>
			<point x="423" y="501"/>
			<point x="423" y="441" type="curve" smooth="yes"/>
			<point x="423" y="307"/>
			<point x="254" y="161"/>
			<point x="190" y="95" type="curve"/>
			<point x="240" y="62"/>
			<point x="282" y="53"/>
			<point x="315" y="53" type="curve" smooth="yes"/>
			<point x="358" y="53"/>
			<point x="387" y="67"/>
			<point x="404" y="67" type="curve" smooth="yes"/>
			<point x="405" y="67"/>
			<point x="407" y="67"/>
			<point x="408" y="67" type="curve" smooth="yes"/>
			<point x="415" y="65"/>
			<point x="418" y="60"/>
			<point x="418" y="54" type="curve" smooth="yes"/>
			<point x="418" y="46"/>
			<point x="413" y="37"/>
			<point x="405" y="30" type="curve" smooth="yes"/>
			<point x="376" y="5"/>
			<point x="346" y="-4"/>
			<point x="316" y="-4" type="curve" smooth="yes"/>
			<point x="258" y="-4"/>
			<point x="200" y="29"/>
			<point x="140" y="37" type="curve"/>
			<point x="111" y="10"/>
			<point x="92" y="1"/>
			<point x="72" y="1" type="curve" smooth="yes"/>
			<point x="65" y="1"/>
			<point x="59" y="2"/>
			<point x="52" y="3" type="curve" smooth="yes"/>
			<point x="24" y="11"/>
			<point x="14" y="40"/>
			<point x="14" y="65" type="curve" smooth="yes"/>
			<point x="14" y="71"/>
			<point x="14" y="76"/>
			<point x="16" y="81" type="curve" smooth="yes"/>
			<point x="22" y="111"/>
			<point x="49" y="131"/>
			<point x="86" y="131" type="curve" smooth="yes"/>
			<point x="99" y="131"/>
			<point x="112" y="129"/>
			<point x="127" y="125" type="curve"/>
			<point x="178" y="170"/>
			<point x="308" y="293"/>
			<point x="326" y="416" type="curve" smooth="yes"/>
			<point x="327" y="421"/>
			<point x="327" y="425"/>
			<point x="327" y="429" type="curve" smooth="yes"/>
			<point x="327" y="465"/>
			<point x="301" y="481"/>
			<point x="269" y="481" type="curve" smooth="yes"/>
			<point x="266" y="481"/>
			<point x="263" y="481"/>
			<point x="259" y="481" type="curve" smooth="yes"/>
			<point x="225" y="477"/>
			<point x="192" y="463"/>
			<point x="163" y="411" type="curve" smooth="yes"/>
			<point x="157" y="400"/>
			<point x="154" y="390"/>
			<point x="154" y="381" type="curve" smooth="yes"/>
			<point x="154" y="362"/>
			<point x="169" y="350"/>
			<point x="184" y="350" type="curve" smooth="yes"/>
			<point x="191" y="350"/>
			<point x="198" y="352"/>
			<point x="204" y="356" type="curve" smooth="yes"/>
			<point x="217" y="365"/>
			<point x="228" y="369"/>
			<point x="237" y="369" type="curve" smooth="yes"/>
			<point x="250" y="369"/>
			<point x="257" y="360"/>
			<point x="257" y="350" type="curve" smooth="yes"/>
			<point x="257" y="341"/>
			<point x="252" y="330"/>
			<point x="241" y="322" type="curve" smooth="yes"/>
			<point x="221" y="307"/>
			<point x="192" y="299"/>
			<point x="164" y="299" type="curve" smooth="yes"/>
			<point x="123" y="299"/>
			<point x="85" y="317"/>
			<point x="85" y="362" type="curve" smooth="yes"/>
			<point x="85" y="368"/>
			<point x="86" y="373"/>
			<point x="87" y="380" type="curve" smooth="yes"/>
			<point x="103" y="465"/>
			<point x="191" y="538"/>
		</contour>
	</outline>
</glyph>
<glyph name="seven" format="2">
	<advance width="317"/>
	<unicode hex="0037"/>
	<outline>
		<contour>
			<point x="137" y="549" type="curve" smooth="yes"/>
			<point x="168" y="515"/>
			<point x="219" y="502"/>
			<point x="262" y="502" type="curve" smooth="yes"/>
			<point x="292" y="502"/>
			<point x="318" y="508"/>
			<point x="332" y="517" type="curve" smooth="yes"/>
			<point x="338" y="524"/>
			<point x="344" y="528"/>
			<point x="348" y="530" type="curve" smooth="yes"/>
			<point x="350" y="531"/>
			<point x="353" y="531"/>
			<point x="356" y="531" type="curve" smooth="yes"/>
			<point x="365" y="531"/>
			<point x="377" y="526"/>
			<point x="377" y="517" type="curve" smooth="yes"/>
			<point x="377" y="515"/>
			<point x="376" y="513"/>
			<point x="375" y="511" type="curve" smooth="yes"/>
			<point x="319" y="397"/>
			<point x="270" y="308"/>
			<point x="225" y="224" type="curve"/>
			<point x="251" y="217"/>
			<point x="269" y="216"/>
			<point x="275" y="209" type="curve" smooth="yes"/>
			<point x="277" y="206"/>
			<point x="279" y="203"/>
			<point x="279" y="199" type="curve" smooth="yes"/>
			<point x="279" y="189"/>
			<point x="269" y="178"/>
			<point x="253" y="175" type="curve" smooth="yes"/>
			<point x="249" y="174"/>
			<point x="244" y="173"/>
			<point x="238" y="173" type="curve" smooth="yes"/>
			<point x="227" y="173"/>
			<point x="214" y="175"/>
			<point x="200" y="178" type="curve"/>
			<point x="147" y="80"/>
			<point x="99" y="-15"/>
			<point x="52" y="-139" type="curve" smooth="yes"/>
			<point x="45" y="-156"/>
			<point x="32" y="-160"/>
			<point x="16" y="-160" type="curve" smooth="yes"/>
			<point x="11" y="-160"/>
			<point x="5" y="-160"/>
			<point x="0" y="-159" type="curve" smooth="yes"/>
			<point x="-1" y="-159"/>
			<point x="-1" y="-159"/>
			<point x="-2" y="-159" type="curve" smooth="yes"/>
			<point x="-22" y="-157"/>
			<point x="-39" y="-155"/>
			<point x="-39" y="-140" type="curve" smooth="yes"/>
			<point x="-39" y="-138"/>
			<point x="-39" y="-135"/>
			<point x="-38" y="-132" type="curve" smooth="yes"/>
			<point x="-16" y="-56"/>
			<point x="49" y="76"/>
			<point x="121" y="202" type="curve"/>
			<point x="103" y="210"/>
			<point x="87" y="219"/>
			<point x="75" y="229" type="curve" smooth="yes"/>
			<point x="71" y="233"/>
			<point x="68" y="239"/>
			<point x="68" y="245" type="curve" smooth="yes"/>
			<point x="68" y="253"/>
			<point x="71" y="261"/>
			<point x="82" y="270" type="curve" smooth="yes"/>
			<point x="93" y="280"/>
			<point x="104" y="284"/>
			<point x="113" y="284" type="curve" smooth="yes"/>
			<point x="118" y="284"/>
			<point x="123" y="282"/>
			<point x="126" y="279" type="curve" smooth="yes"/>
			<point x="136" y="271"/>
			<point x="145" y="264"/>
			<point x="154" y="258" type="curve"/>
			<point x="199" y="334"/>
			<point x="244" y="405"/>
			<point x="281" y="455" type="curve"/>
			<point x="278" y="455"/>
			<point x="275" y="455"/>
			<point x="273" y="455" type="curve" smooth="yes"/>
			<point x="220" y="455"/>
			<point x="148" y="466"/>
			<point x="122" y="491" type="curve"/>
			<point x="102" y="454"/>
			<point x="67" y="420"/>
			<point x="42" y="420" type="curve" smooth="yes"/>
			<point x="22" y="420"/>
			<point x="20" y="425"/>
			<point x="20" y="437" type="curve" smooth="yes"/>
			<point x="20" y="454"/>
			<point x="39" y="503"/>
			<point x="47" y="536" type="curve" smooth="yes"/>
			<point x="52" y="560"/>
			<point x="75" y="562"/>
			<point x="97" y="562" type="curve" smooth="yes"/>
			<point x="116" y="562"/>
			<point x="133" y="553"/>
		</contour>
	</outline>
</glyph>
<glyph name="nine" format="2">
	<advance width="378"/>
	<unicode hex="0039"/>
	<outline>
		<contour>
			<point x="81" y="20" type="curve" smooth="yes"/>
			<point x="173" y="43"/>
			<point x="239" y="173"/>
			<point x="261" y="243" type="curve"/>
			<point x="235" y="224"/>
			<point x="200" y="211"/>
			<point x="156" y="211" type="curve" smooth="yes"/>
			<point x="151" y="211"/>
			<point x="146" y="211"/>
			<point x="140" y="211" type="curve" smooth="yes"/>
			<point x="62" y="217"/>
			<point x="19" y="278"/>
			<point x="19" y="345" type="curve" smooth="yes"/>
			<point x="19" y="367"/>
			<point x="24" y="389"/>
			<point x="32" y="410" type="curve" smooth="yes"/>
			<point x="58" y="472"/>
			<point x="131" y="548"/>
			<point x="227" y="548" type="curve" smooth="yes"/>
			<point x="258" y="548"/>
			<point x="295" y="538"/>
			<point x="312" y="523" type="curve"/>
			<point x="314" y="545"/>
			<point x="361" y="548"/>
			<point x="364" y="548" type="curve" smooth="yes"/>
			<point x="365" y="548"/>
			<point x="365" y="548"/>
			<point x="366" y="548" type="curve" smooth="yes"/>
			<point x="391" y="548"/>
			<point x="403" y="547"/>
			<point x="403" y="528" type="curve" smooth="yes"/>
			<point x="403" y="524"/>
			<point x="403" y="520"/>
			<point x="402" y="515" type="curve" smooth="yes"/>
			<point x="364" y="293"/>
			<point x="302" y="29"/>
			<point x="106" y="-20" type="curve" smooth="yes"/>
			<point x="90" y="-24"/>
			<point x="74" y="-26"/>
			<point x="60" y="-26" type="curve" smooth="yes"/>
			<point x="11" y="-26"/>
			<point x="-29" y="-6"/>
			<point x="-50" y="18" type="curve" smooth="yes"/>
			<point x="-57" y="25"/>
			<point x="-65" y="40"/>
			<point x="-65" y="55" type="curve" smooth="yes"/>
			<point x="-65" y="62"/>
			<point x="-63" y="69"/>
			<point x="-58" y="76" type="curve" smooth="yes"/>
			<point x="-49" y="86"/>
			<point x="-36" y="91"/>
			<point x="-23" y="91" type="curve" smooth="yes"/>
			<point x="-13" y="91"/>
			<point x="-3" y="88"/>
			<point x="4" y="83" type="curve" smooth="yes"/>
			<point x="21" y="70"/>
			<point x="24" y="18"/>
			<point x="66" y="18" type="curve" smooth="yes"/>
			<point x="70" y="18"/>
			<point x="76" y="18"/>
		</contour>
		<contour>
			<point x="297" y="376" type="curve" smooth="yes"/>
			<point x="300" y="390"/>
			<point x="302" y="405"/>
			<point x="302" y="418" type="curve" smooth="yes"/>
			<point x="302" y="461"/>
			<point x="282" y="498"/>
			<point x="228" y="498" type="curve" smooth="yes"/>
			<point x="225" y="498"/>
			<point x="222" y="498"/>
			<point x="218" y="498" type="curve" smooth="yes"/>
			<point x="176" y="495"/>
			<point x="131" y="452"/>
			<point x="108" y="407" type="curve" smooth="yes"/>
			<point x="98" y="388"/>
			<point x="93" y="368"/>
			<point x="93" y="348" type="curve" smooth="yes"/>
			<point x="93" y="300"/>
			<point x="122" y="258"/>
			<point x="168" y="258" type="curve" smooth="yes"/>
			<point x="227" y="258"/>
			<point x="277" y="302"/>
		</contour>
	</outline>
</glyph>
<glyph name="semicolon" format="2">
	<advance width="223"/>
	<unicode hex="003B"/>
	<outline>
		<contour>
			<point x="16" y="71" type="curve" smooth="yes"/>
			<point x="18" y="81"/>
			<point x="27" y="95"/>
			<point x="55" y="95" type="curve" smooth="yes"/>
			<point x="58" y="95"/>
			<point x="62" y="94"/>
			<point x="65" y="94" type="curve" smooth="yes"/>
			<point x="87" y="92"/>
			<point x="95" y="80"/>
			<point x="95" y="70" type="curve" smooth="yes"/>
			<point x="95" y="68"/>
			<point x="94" y="66"/>
			<point x="94" y="64" type="curve" smooth="yes"/>
			<point x="80" y="12"/>
			<point x="30" y="-66"/>
			<point x="0" y="-85" type="curve" smooth="yes"/>
			<point x="-7" y="-90"/>
			<point x="-14" y="-92"/>
			<point x="-21" y="-92" type="curve" smooth="yes"/>
			<point x="-32" y="-92"/>
			<point x="-39" y="-86"/>
			<point x="-40" y="-76" type="curve" smooth="yes"/>
			<point x="-40" y="-76"/>
			<point x="-40" y="-75"/>
			<point x="-40" y="-75" type="curve" smooth="yes"/>
			<point x="-40" y="-58"/>
			<point x="-8" y="-26"/>
		</contour>
		<contour>
			<point x="32" y="200" type="curve" smooth="yes"/>
			<point x="32" y="215"/>
			<point x="39" y="227"/>
			<point x="45" y="254" type="curve" smooth="yes"/>
			<point x="49" y="278"/>
			<point x="72" y="279"/>
			<point x="95" y="279" type="curve" smooth="yes"/>
			<point x="96" y="279"/>
			<point x="97" y="279"/>
			<point x="98" y="279" type="curve" smooth="yes"/>
			<point x="120" y="279"/>
			<point x="135" y="279"/>
			<point x="135" y="256" type="curve" smooth="yes"/>
			<point x="135" y="211"/>
			<point x="91" y="183"/>
			<point x="55" y="183" type="curve" smooth="yes"/>
			<point x="35" y="183"/>
			<point x="32" y="188"/>
		</contour>
	</outline>
</glyph>
<glyph name="less" format="2">
	<advance width="224"/>
	<unicode hex="003C"/>
	<outline>
		<contour>
			<point x="99" y="307" type="curve" smooth="yes"/>
			<point x="103" y="313"/>
			<point x="111" y="319"/>
			<point x="124" y="319" type="curve" smooth="yes"/>
			<point x="132" y="319"/>
			<point x="142" y="317"/>
			<point x="153" y="311" type="curve" smooth="yes"/>
			<point x="169" y="304"/>
			<point x="174" y="294"/>
			<point x="174" y="286" type="curve" smooth="yes"/>
			<point x="174" y="281"/>
			<point x="172" y="277"/>
			<point x="170" y="273" type="curve" smooth="yes"/>
			<point x="143" y="234"/>
			<point x="87" y="175"/>
			<point x="51" y="149" type="curve"/>
			<point x="96" y="117"/>
			<point x="167" y="59"/>
			<point x="173" y="33" type="curve" smooth="yes"/>
			<point x="173" y="30"/>
			<point x="174" y="26"/>
			<point x="174" y="23" type="curve" smooth="yes"/>
			<point x="174" y="8"/>
			<point x="166" y="-2"/>
			<point x="156" y="-2" type="curve" smooth="yes"/>
			<point x="154" y="-2"/>
			<point x="152" y="-2"/>
			<point x="150" y="-1" type="curve" smooth="yes"/>
			<point x="134" y="4"/>
			<point x="117" y="37"/>
			<point x="12" y="102" type="curve" smooth="yes"/>
			<point x="0" y="110"/>
			<point x="-4" y="125"/>
			<point x="-4" y="140" type="curve" smooth="yes"/>
			<point x="-4" y="151"/>
			<point x="-2" y="162"/>
			<point x="2" y="170" type="curve" smooth="yes"/>
			<point x="9" y="186"/>
			<point x="43" y="222"/>
		</contour>
	</outline>
</glyph>
<glyph name="equal" format="2">
	<advance width="317"/>
	<unicode hex="003D"/>
	<outline>
		<contour>
			<point x="248" y="207" type="curve" smooth="yes"/>
			<point x="249" y="207"/>
			<point x="251" y="208"/>
			<point x="253" y="208" type="curve" smooth="yes"/>
			<point x="263" y="208"/>
			<point x="276" y="199"/>
			<point x="285" y="182" type="curve" smooth="yes"/>
			<point x="289" y="174"/>
			<point x="291" y="168"/>
			<point x="291" y="162" type="curve" smooth="yes"/>
			<point x="291" y="151"/>
			<point x="284" y="144"/>
			<point x="276" y="141" type="curve" smooth="yes"/>
			<point x="248" y="132"/>
			<point x="185" y="126"/>
			<point x="128" y="126" type="curve" smooth="yes"/>
			<point x="81" y="126"/>
			<point x="38" y="130"/>
			<point x="23" y="140" type="curve" smooth="yes"/>
			<point x="12" y="148"/>
			<point x="6" y="158"/>
			<point x="6" y="166" type="curve" smooth="yes"/>
			<point x="6" y="172"/>
			<point x="9" y="178"/>
			<point x="16" y="181" type="curve" smooth="yes"/>
			<point x="21" y="183"/>
			<point x="28" y="184"/>
			<point x="38" y="184" type="curve" smooth="yes"/>
			<point x="53" y="184"/>
			<point x="74" y="182"/>
			<point x="100" y="182" type="curve" smooth="yes"/>
			<point x="139" y="182"/>
			<point x="189" y="186"/>
		</contour>
		<contour>
			<point x="254" y="313" type="curve" smooth="yes"/>
			<point x="255" y="313"/>
			<point x="257" y="314"/>
			<point x="259" y="314" type="curve" smooth="yes"/>
			<point x="269" y="314"/>
			<point x="283" y="305"/>
			<point x="292" y="287" type="curve" smooth="yes"/>
			<point x="296" y="280"/>
			<point x="297" y="274"/>
			<point x="297" y="268" type="curve" smooth="yes"/>
			<point x="297" y="257"/>
			<point x="290" y="250"/>
			<point x="282" y="247" type="curve" smooth="yes"/>
			<point x="254" y="238"/>
			<point x="191" y="232"/>
			<point x="135" y="232" type="curve" smooth="yes"/>
			<point x="87" y="232"/>
			<point x="44" y="236"/>
			<point x="29" y="246" type="curve" smooth="yes"/>
			<point x="18" y="254"/>
			<point x="12" y="264"/>
			<point x="12" y="272" type="curve" smooth="yes"/>
			<point x="12" y="278"/>
			<point x="15" y="283"/>
			<point x="22" y="287" type="curve" smooth="yes"/>
			<point x="27" y="289"/>
			<point x="35" y="290"/>
			<point x="44" y="290" type="curve" smooth="yes"/>
			<point x="60" y="290"/>
			<point x="80" y="288"/>
			<point x="106" y="288" type="curve" smooth="yes"/>
			<point x="145" y="288"/>
			<point x="195" y="292"/>
		</contour>
	</outline>
</glyph>
<glyph name="greater" format="2">
	<advance width="199"/>
	<unicode hex="003E"/>
	<outline>
		<contour>
			<point x="64" y="12" type="curve" smooth="yes"/>
			<point x="60" y="7"/>
			<point x="53" y="2"/>
			<point x="41" y="2" type="curve" smooth="yes"/>
			<point x="40" y="2"/>
			<point x="39" y="2"/>
			<point x="38" y="2" type="curve" smooth="yes"/>
			<point x="30" y="2"/>
			<point x="21" y="5"/>
			<point x="10" y="12" type="curve" smooth="yes"/>
			<point x="-4" y="20"/>
			<point x="-9" y="29"/>
			<point x="-9" y="38" type="curve" smooth="yes"/>
			<point x="-9" y="38"/>
			<point x="-9" y="39"/>
			<point x="-9" y="39" type="curve" smooth="yes"/>
			<point x="-8" y="44"/>
			<point x="-7" y="48"/>
			<point x="-4" y="51" type="curve" smooth="yes"/>
			<point x="27" y="88"/>
			<point x="88" y="142"/>
			<point x="125" y="165" type="curve"/>
			<point x="83" y="200"/>
			<point x="24" y="259"/>
			<point x="20" y="285" type="curve" smooth="yes"/>
			<point x="20" y="287"/>
			<point x="20" y="289"/>
			<point x="20" y="291" type="curve" smooth="yes"/>
			<point x="20" y="293"/>
			<point x="20" y="294"/>
			<point x="20" y="295" type="curve" smooth="yes"/>
			<point x="21" y="309"/>
			<point x="30" y="319"/>
			<point x="39" y="319" type="curve" smooth="yes"/>
			<point x="40" y="319"/>
			<point x="40" y="319"/>
			<point x="41" y="319" type="curve" smooth="yes"/>
			<point x="42" y="318"/>
			<point x="44" y="318"/>
			<point x="46" y="317" type="curve" smooth="yes"/>
			<point x="62" y="310"/>
			<point x="70" y="282"/>
			<point x="168" y="208" type="curve" smooth="yes"/>
			<point x="178" y="201"/>
			<point x="182" y="188"/>
			<point x="182" y="176" type="curve" smooth="yes"/>
			<point x="182" y="162"/>
			<point x="178" y="149"/>
			<point x="173" y="140" type="curve" smooth="yes"/>
			<point x="164" y="124"/>
			<point x="127" y="91"/>
		</contour>
	</outline>
</glyph>
<glyph name="bracketright" format="2">
	<advance width="165"/>
	<unicode hex="005D"/>
	<outline>
		<contour>
			<point x="52" y="694" type="curve" smooth="yes"/>
			<point x="93" y="684"/>
			<point x="116" y="669"/>
			<point x="155" y="669" type="curve" smooth="yes"/>
			<point x="160" y="669"/>
			<point x="166" y="669"/>
			<point x="171" y="670" type="curve" smooth="yes"/>
			<point x="173" y="670"/>
			<point x="175" y="670"/>
			<point x="177" y="670" type="curve" smooth="yes"/>
			<point x="184" y="670"/>
			<point x="190" y="669"/>
			<point x="194" y="667" type="curve" smooth="yes"/>
			<point x="200" y="664"/>
			<point x="204" y="658"/>
			<point x="204" y="652" type="curve" smooth="yes"/>
			<point x="204" y="651"/>
			<point x="203" y="649"/>
			<point x="203" y="647" type="curve" smooth="yes"/>
			<point x="194" y="565"/>
			<point x="137" y="117"/>
			<point x="115" y="-139" type="curve" smooth="yes"/>
			<point x="113" y="-157"/>
			<point x="96" y="-160"/>
			<point x="80" y="-160" type="curve" smooth="yes"/>
			<point x="75" y="-160"/>
			<point x="69" y="-160"/>
			<point x="63" y="-159" type="curve" smooth="yes"/>
			<point x="62" y="-159"/>
			<point x="62" y="-159"/>
			<point x="61" y="-159" type="curve" smooth="yes"/>
			<point x="45" y="-158"/>
			<point x="32" y="-157"/>
			<point x="27" y="-147" type="curve"/>
			<point x="11" y="-158"/>
			<point x="-10" y="-162"/>
			<point x="-33" y="-162" type="curve" smooth="yes"/>
			<point x="-67" y="-162"/>
			<point x="-104" y="-153"/>
			<point x="-129" y="-147" type="curve" smooth="yes"/>
			<point x="-137" y="-145"/>
			<point x="-145" y="-139"/>
			<point x="-146" y="-127" type="curve" smooth="yes"/>
			<point x="-146" y="-126"/>
			<point x="-146" y="-126"/>
			<point x="-146" y="-125" type="curve" smooth="yes"/>
			<point x="-146" y="-120"/>
			<point x="-145" y="-114"/>
			<point x="-142" y="-108" type="curve" smooth="yes"/>
			<point x="-134" y="-89"/>
			<point x="-122" y="-80"/>
			<point x="-112" y="-79" type="curve" smooth="yes"/>
			<point x="-111" y="-79"/>
			<point x="-111" y="-79"/>
			<point x="-110" y="-79" type="curve" smooth="yes"/>
			<point x="-109" y="-79"/>
			<point x="-108" y="-79"/>
			<point x="-106" y="-79" type="curve" smooth="yes"/>
			<point x="-66" y="-90"/>
			<point x="-42" y="-104"/>
			<point x="-4" y="-104" type="curve" smooth="yes"/>
			<point x="1" y="-104"/>
			<point x="7" y="-104"/>
			<point x="13" y="-103" type="curve" smooth="yes"/>
			<point x="15" y="-103"/>
			<point x="17" y="-103"/>
			<point x="18" y="-103" type="curve" smooth="yes"/>
			<point x="22" y="-103"/>
			<point x="25" y="-103"/>
			<point x="27" y="-104" type="curve"/>
			<point x="41" y="33"/>
			<point x="116" y="471"/>
			<point x="159" y="615" type="curve"/>
			<point x="148" y="613"/>
			<point x="137" y="612"/>
			<point x="126" y="612" type="curve" smooth="yes"/>
			<point x="91" y="612"/>
			<point x="54" y="620"/>
			<point x="30" y="626" type="curve" smooth="yes"/>
			<point x="22" y="628"/>
			<point x="14" y="635"/>
			<point x="13" y="646" type="curve" smooth="yes"/>
			<point x="13" y="647"/>
			<point x="13" y="648"/>
			<point x="13" y="648" type="curve" smooth="yes"/>
			<point x="13" y="653"/>
			<point x="14" y="659"/>
			<point x="17" y="666" type="curve" smooth="yes"/>
			<point x="24" y="684"/>
			<point x="37" y="693"/>
			<point x="47" y="694" type="curve" smooth="yes"/>
			<point x="47" y="694"/>
			<point x="48" y="694"/>
			<point x="48" y="694" type="curve" smooth="yes"/>
			<point x="50" y="694"/>
			<point x="51" y="694"/>
		</contour>
	</outline>
</glyph>
<glyph name="bar" format="2">
	<advance width="213"/>
	<unicode hex="007C"/>
	<outline>
		<contour>
			<point x="156" y="695" type="curve" smooth="yes"/>
			<point x="158" y="696"/>
			<point x="160" y="698"/>
			<point x="163" y="699" type="curve" smooth="yes"/>
			<point x="165" y="699"/>
			<point x="167" y="700"/>
			<point x="169" y="700" type="curve" smooth="yes"/>
			<point x="175" y="700"/>
			<point x="179" y="697"/>
			<point x="181" y="692" type="curve" smooth="yes"/>
			<point x="182" y="691"/>
			<point x="182" y="689"/>
			<point x="182" y="687" type="curve" smooth="yes"/>
			<point x="182" y="686"/>
			<point x="182" y="686"/>
			<point x="182" y="685" type="curve" smooth="yes"/>
			<point x="174" y="612"/>
			<point x="111" y="122"/>
			<point x="89" y="-138" type="curve" smooth="yes"/>
			<point x="87" y="-156"/>
			<point x="70" y="-159"/>
			<point x="54" y="-159" type="curve" smooth="yes"/>
			<point x="49" y="-159"/>
			<point x="43" y="-159"/>
			<point x="37" y="-158" type="curve" smooth="yes"/>
			<point x="36" y="-158"/>
			<point x="36" y="-158"/>
			<point x="35" y="-158" type="curve" smooth="yes"/>
			<point x="14" y="-156"/>
			<point x="-1" y="-155"/>
			<point x="-1" y="-135" type="curve" smooth="yes"/>
			<point x="-1" y="-51"/>
			<point x="120" y="664"/>
		</contour>
	</outline>
</glyph>
<glyph name="sterling" format="2">
	<advance width="390"/>
	<unicode hex="00A3"/>
	<outline>
		<contour>
			<point x="327" y="-29" type="curve" smooth="yes"/>
			<point x="241" y="-14"/>
			<point x="148" y="-1"/>
			<point x="0" y="-1" type="curve" smooth="yes"/>
			<point x="-9" y="-1"/>
			<point x="-18" y="-1"/>
			<point x="-27" y="-1" type="curve" smooth="yes"/>
			<point x="-27" y="-1"/>
			<point x="-27" y="-1"/>
			<point x="-27" y="-1" type="curve" smooth="yes"/>
			<point x="-47" y="-1"/>
			<point x="-54" y="7"/>
			<point x="-54" y="17" type="curve" smooth="yes"/>
			<point x="-54" y="27"/>
			<point x="-45" y="39"/>
			<point x="-33" y="41" type="curve" smooth="yes"/>
			<point x="9" y="49"/>
			<point x="48" y="138"/>
			<point x="88" y="245" type="curve"/>
			<point x="60" y="247"/>
			<point x="36" y="251"/>
			<point x="28" y="256" type="curve" smooth="yes"/>
			<point x="17" y="264"/>
			<point x="11" y="274"/>
			<point x="11" y="282" type="curve" smooth="yes"/>
			<point x="11" y="288"/>
			<point x="14" y="293"/>
			<point x="21" y="297" type="curve" smooth="yes"/>
			<point x="26" y="299"/>
			<point x="34" y="300"/>
			<point x="43" y="300" type="curve" smooth="yes"/>
			<point x="54" y="300"/>
			<point x="84" y="299"/>
			<point x="109" y="298" type="curve"/>
			<point x="165" y="449"/>
			<point x="226" y="611"/>
			<point x="302" y="611" type="curve" smooth="yes"/>
			<point x="336" y="611"/>
			<point x="348" y="592"/>
			<point x="348" y="566" type="curve" smooth="yes"/>
			<point x="348" y="531"/>
			<point x="331" y="491"/>
			<point x="296" y="491" type="curve" smooth="yes"/>
			<point x="292" y="491"/>
			<point x="289" y="491"/>
			<point x="285" y="492" type="curve" smooth="yes"/>
			<point x="281" y="493"/>
			<point x="278" y="493"/>
			<point x="274" y="493" type="curve" smooth="yes"/>
			<point x="263" y="493"/>
			<point x="253" y="488"/>
			<point x="246" y="473" type="curve" smooth="yes"/>
			<point x="230" y="437"/>
			<point x="213" y="374"/>
			<point x="191" y="303" type="curve"/>
			<point x="226" y="309"/>
			<point x="266" y="318"/>
			<point x="302" y="331" type="curve" smooth="yes"/>
			<point x="303" y="331"/>
			<point x="305" y="331"/>
			<point x="307" y="331" type="curve" smooth="yes"/>
			<point x="317" y="331"/>
			<point x="330" y="323"/>
			<point x="340" y="305" type="curve" smooth="yes"/>
			<point x="343" y="298"/>
			<point x="345" y="291"/>
			<point x="345" y="286" type="curve" smooth="yes"/>
			<point x="345" y="275"/>
			<point x="338" y="268"/>
			<point x="330" y="265" type="curve" smooth="yes"/>
			<point x="304" y="256"/>
			<point x="226" y="243"/>
			<point x="170" y="242" type="curve"/>
			<point x="145" y="172"/>
			<point x="111" y="101"/>
			<point x="65" y="49" type="curve"/>
			<point x="65" y="49"/>
			<point x="65" y="49"/>
			<point x="66" y="49" type="curve" smooth="yes"/>
			<point x="183" y="52"/>
			<point x="203" y="55"/>
			<point x="311" y="56" type="curve" smooth="yes"/>
			<point x="312" y="56"/>
			<point x="315" y="56"/>
			<point x="318" y="56" type="curve" smooth="yes"/>
			<point x="337" y="56"/>
			<point x="377" y="54"/>
			<point x="378" y="30" type="curve" smooth="yes"/>
			<point x="378" y="30"/>
			<point x="378" y="29"/>
			<point x="378" y="29" type="curve" smooth="yes"/>
			<point x="378" y="12"/>
			<point x="357" y="-29"/>
			<point x="331" y="-29" type="curve" smooth="yes"/>
			<point x="330" y="-29"/>
			<point x="329" y="-29"/>
		</contour>
	</outline>
</glyph>
<glyph name="uni05D2" format="2">
	<advance width="585"/>
	<unicode hex="05D2"/>
	<outline>
		<contour>
			<point x="168" y="53" type="curve" smooth="yes"/>
			<point x="221" y="53"/>
			<point x="287" y="11"/>
			<point x="332" y="11" type="curve" smooth="yes"/>
			<point x="415" y="11"/>
			<point x="451" y="111"/>
			<point x="451" y="198" type="curve" smooth="yes"/>
			<point x="451" y="234"/>
			<point x="490" y="244"/>
			<point x="530" y="244" type="curve" smooth="yes"/>
			<point x="541" y="244"/>
			<point x="552" y="237"/>
			<point x="552" y="223" type="curve" smooth="yes"/>
			<point x="552" y="102"/>
			<point x="441" y="-41"/>
			<point x="325" y="-41" type="curve" smooth="yes"/>
			<point x="285" y="-41"/>
			<point x="227" y="-6"/>
			<point x="187" y="-6" type="curve" smooth="yes"/>
			<point x="155" y="-6"/>
			<point x="92" y="-38"/>
			<point x="51" y="-38" type="curve" smooth="yes"/>
			<point x="-49" y="-38"/>
			<point x="-126" y="14"/>
			<point x="-126" y="38" type="curve" smooth="yes"/>
			<point x="-126" y="45"/>
			<point x="-124" y="48"/>
			<point x="-115" y="48" type="curve" smooth="yes"/>
			<point x="-76" y="48"/>
			<point x="-50" y="18"/>
			<point x="6" y="18" type="curve" smooth="yes"/>
			<point x="73" y="18"/>
			<point x="118" y="53"/>
		</contour>
	</outline>
</glyph>
<glyph name="uni05D4" format="2">
	<advance width="467"/>
	<unicode hex="05D4"/>
	<outline>
		<contour>
			<point x="70" y="89" type="curve" smooth="yes"/>
			<point x="123" y="89"/>
			<point x="190" y="58"/>
			<point x="246" y="58" type="curve" smooth="yes"/>
			<point x="259" y="58"/>
			<point x="273" y="60"/>
			<point x="285" y="65" type="curve" smooth="yes"/>
			<point x="306" y="73"/>
			<point x="334" y="112"/>
			<point x="334" y="177" type="curve" smooth="yes"/>
			<point x="334" y="213"/>
			<point x="372" y="223"/>
			<point x="412" y="223" type="curve" smooth="yes"/>
			<point x="423" y="223"/>
			<point x="435" y="216"/>
			<point x="435" y="201" type="curve" smooth="yes"/>
			<point x="435" y="106"/>
			<point x="372" y="36"/>
			<point x="297" y="19" type="curve" smooth="yes"/>
			<point x="282" y="15"/>
			<point x="268" y="14"/>
			<point x="255" y="14" type="curve" smooth="yes"/>
			<point x="201" y="14"/>
			<point x="161" y="38"/>
			<point x="116" y="38" type="curve" smooth="yes"/>
			<point x="78" y="38"/>
			<point x="70" y="19"/>
			<point x="70" y="-2" type="curve" smooth="yes"/>
			<point x="70" y="-18"/>
			<point x="75" y="-36"/>
			<point x="75" y="-47" type="curve" smooth="yes"/>
			<point x="75" y="-59"/>
			<point x="75" y="-66"/>
			<point x="53" y="-66" type="curve" smooth="yes"/>
			<point x="16" y="-66"/>
			<point x="-6" y="-27"/>
			<point x="-8" y="8" type="curve" smooth="yes"/>
			<point x="-8" y="11"/>
			<point x="-8" y="15"/>
			<point x="-8" y="18" type="curve" smooth="yes"/>
			<point x="-8" y="54"/>
			<point x="2" y="89"/>
		</contour>
	</outline>
</glyph>
<glyph name="uni05D9" format="2">
	<advance width="150"/>
	<unicode hex="05D9"/>
	<outline>
		<contour>
			<point x="0" y="102" type="curve" smooth="yes"/>
			<point x="0" y="117"/>
			<point x="0" y="105"/>
			<point x="27" y="201" type="curve" smooth="yes"/>
			<point x="33" y="225"/>
			<point x="55" y="227"/>
			<point x="77" y="227" type="curve" smooth="yes"/>
			<point x="78" y="227"/>
			<point x="79" y="227"/>
			<point x="80" y="227" type="curve" smooth="yes"/>
			<point x="102" y="227"/>
			<point x="117" y="227"/>
			<point x="117" y="204" type="curve" smooth="yes"/>
			<point x="117" y="159"/>
			<point x="59" y="85"/>
			<point x="22" y="85" type="curve" smooth="yes"/>
			<point x="2" y="85"/>
			<point x="0" y="90"/>
		</contour>
	</outline>
</glyph>
<glyph name="uni05DA" format="2">
	<advance width="304"/>
	<unicode hex="05DA"/>
	<outline>
		<contour>
			<point x="253" y="156" type="curve" smooth="yes"/>
			<point x="137" y="-136"/>
			<point x="185" y="-261"/>
			<point x="29" y="-402" type="curve" smooth="yes"/>
			<point x="20" y="-410"/>
			<point x="11" y="-413"/>
			<point x="4" y="-413" type="curve" smooth="yes"/>
			<point x="-8" y="-413"/>
			<point x="-16" y="-406"/>
			<point x="-16" y="-396" type="curve" smooth="yes"/>
			<point x="-16" y="-390"/>
			<point x="-12" y="-383"/>
			<point x="-5" y="-375" type="curve" smooth="yes"/>
			<point x="84" y="-286"/>
			<point x="59" y="-112"/>
			<point x="177" y="159" type="curve" smooth="yes"/>
			<point x="183" y="173"/>
			<point x="185" y="184"/>
			<point x="185" y="193" type="curve" smooth="yes"/>
			<point x="185" y="222"/>
			<point x="157" y="231"/>
			<point x="125" y="231" type="curve" smooth="yes"/>
			<point x="87" y="231"/>
			<point x="43" y="219"/>
			<point x="35" y="218" type="curve" smooth="yes"/>
			<point x="26" y="217"/>
			<point x="19" y="217"/>
			<point x="12" y="217" type="curve" smooth="yes"/>
			<point x="-36" y="217"/>
			<point x="-53" y="236"/>
			<point x="-53" y="256" type="curve" smooth="yes"/>
			<point x="-53" y="273"/>
			<point x="-40" y="290"/>
			<point x="-22" y="295" type="curve" smooth="yes"/>
			<point x="-16" y="297"/>
			<point x="-10" y="298"/>
			<point x="-5" y="298" type="curve" smooth="yes"/>
			<point x="21" y="298"/>
			<point x="20" y="273"/>
			<point x="67" y="273" type="curve" smooth="yes"/>
			<point x="68" y="273"/>
			<point x="68" y="273"/>
			<point x="69" y="273" type="curve" smooth="yes"/>
			<point x="100" y="273"/>
			<point x="147" y="283"/>
			<point x="187" y="283" type="curve" smooth="yes"/>
			<point x="232" y="283"/>
			<point x="269" y="271"/>
			<point x="269" y="223" type="curve" smooth="yes"/>
			<point x="269" y="206"/>
			<point x="264" y="184"/>
		</contour>
	</outline>
</glyph>
<glyph name="uni05DF" format="2">
	<advance width="244"/>
	<unicode hex="05DF"/>
	<outline>
		<contour>
			<point x="200" y="264" type="curve" smooth="yes"/>
			<point x="221" y="264"/>
			<point x="221" y="257"/>
			<point x="221" y="245" type="curve" smooth="yes"/>
			<point x="221" y="223"/>
			<point x="-12" y="-145"/>
			<point x="-107" y="-392" type="curve" smooth="yes"/>
			<point x="-114" y="-410"/>
			<point x="-127" y="-413"/>
			<point x="-143" y="-413" type="curve" smooth="yes"/>
			<point x="-148" y="-413"/>
			<point x="-154" y="-413"/>
			<point x="-159" y="-412" type="curve" smooth="yes"/>
			<point x="-160" y="-412"/>
			<point x="-160" y="-412"/>
			<point x="-161" y="-412" type="curve" smooth="yes"/>
			<point x="-182" y="-410"/>
			<point x="-197" y="-409"/>
			<point x="-197" y="-390" type="curve" smooth="yes"/>
			<point x="-197" y="-304"/>
			<point x="144" y="264"/>
		</contour>
	</outline>
</glyph>
<glyph name="uni05E0" format="2">
	<advance width="187"/>
	<unicode hex="05E0"/>
	<outline>
		<contour>
			<point x="-43" y="0" type="curve" smooth="yes"/>
			<point x="-63" y="0"/>
			<point x="-71" y="8"/>
			<point x="-71" y="18" type="curve" smooth="yes"/>
			<point x="-71" y="28"/>
			<point x="-61" y="40"/>
			<point x="-50" y="42" type="curve" smooth="yes"/>
			<point x="0" y="51"/>
			<point x="41" y="175"/>
			<point x="63" y="255" type="curve" smooth="yes"/>
			<point x="70" y="278"/>
			<point x="91" y="279"/>
			<point x="114" y="279" type="curve" smooth="yes"/>
			<point x="115" y="279"/>
			<point x="115" y="279"/>
			<point x="116" y="279" type="curve" smooth="yes"/>
			<point x="138" y="279"/>
			<point x="154" y="279"/>
			<point x="154" y="256" type="curve" smooth="yes"/>
			<point x="154" y="175"/>
			<point x="56" y="0"/>
		</contour>
	</outline>
</glyph>
<glyph name="uni05E1" format="2">
	<advance width="378"/>
	<unicode hex="05E1"/>
	<outline>
		<contour>
			<point x="218" y="279" type="curve"/>
			<point x="308" y="279"/>
			<point x="340" y="229"/>
			<point x="340" y="176" type="curve" smooth="yes"/>
			<point x="340" y="172"/>
			<point x="340" y="168"/>
			<point x="339" y="164" type="curve" smooth="yes"/>
			<point x="329" y="58"/>
			<point x="223" y="0"/>
			<point x="135" y="0" type="curve" smooth="yes"/>
			<point x="85" y="0"/>
			<point x="56" y="29"/>
			<point x="40" y="61" type="curve"/>
			<point x="17" y="26"/>
			<point x="-6" y="0"/>
			<point x="-20" y="0" type="curve" smooth="yes"/>
			<point x="-41" y="0"/>
			<point x="-41" y="7"/>
			<point x="-41" y="19" type="curve" smooth="yes"/>
			<point x="-41" y="33"/>
			<point x="17" y="157"/>
			<point x="43" y="255" type="curve" smooth="yes"/>
			<point x="50" y="278"/>
			<point x="71" y="279"/>
			<point x="93" y="279" type="curve" smooth="yes"/>
			<point x="95" y="279"/>
			<point x="95" y="279"/>
			<point x="96" y="279" type="curve" smooth="yes"/>
			<point x="118" y="279"/>
			<point x="134" y="279"/>
			<point x="134" y="256" type="curve" smooth="yes"/>
			<point x="134" y="256"/>
			<point x="134" y="255"/>
			<point x="134" y="255" type="curve"/>
			<point x="159" y="270"/>
			<point x="187" y="279"/>
		</contour>
		<contour>
			<point x="91" y="136" type="curve" smooth="yes"/>
			<point x="89" y="128"/>
			<point x="87" y="120"/>
			<point x="87" y="111" type="curve" smooth="yes"/>
			<point x="87" y="79"/>
			<point x="106" y="46"/>
			<point x="137" y="46" type="curve" smooth="yes"/>
			<point x="201" y="46"/>
			<point x="249" y="108"/>
			<point x="254" y="164" type="curve" smooth="yes"/>
			<point x="254" y="166"/>
			<point x="254" y="169"/>
			<point x="254" y="172" type="curve" smooth="yes"/>
			<point x="254" y="214"/>
			<point x="226" y="228"/>
			<point x="201" y="229" type="curve" smooth="yes"/>
			<point x="196" y="230"/>
			<point x="192" y="230"/>
			<point x="187" y="230" type="curve" smooth="yes"/>
			<point x="122" y="230"/>
			<point x="109" y="192"/>
		</contour>
	</outline>
</glyph>
<glyph name="uni05E3" format="2">
	<advance width="189"/>
	<unicode hex="05E3"/>
	<outline>
		<contour>
			<point x="312" y="700" type="curve" smooth="yes"/>
			<point x="313" y="700"/>
			<point x="314" y="700"/>
			<point x="314" y="700" type="curve" smooth="yes"/>
			<point x="323" y="700"/>
			<point x="326" y="693"/>
			<point x="326" y="685" type="curve" smooth="yes"/>
			<point x="326" y="676"/>
			<point x="322" y="667"/>
			<point x="315" y="664" type="curve" smooth="yes"/>
			<point x="232" y="635"/>
			<point x="152" y="-1"/>
			<point x="-46" y="-1" type="curve" smooth="yes"/>
			<point x="-66" y="-1"/>
			<point x="-73" y="7"/>
			<point x="-73" y="17" type="curve" smooth="yes"/>
			<point x="-73" y="27"/>
			<point x="-63" y="39"/>
			<point x="-52" y="41" type="curve" smooth="yes"/>
			<point x="12" y="53"/>
			<point x="71" y="261"/>
			<point x="139" y="440" type="curve"/>
			<point x="112" y="444"/>
			<point x="88" y="450"/>
			<point x="63" y="450" type="curve" smooth="yes"/>
			<point x="59" y="450"/>
			<point x="55" y="450"/>
			<point x="51" y="449" type="curve" smooth="yes"/>
			<point x="17" y="446"/>
			<point x="8" y="430"/>
			<point x="8" y="412" type="curve" smooth="yes"/>
			<point x="8" y="394"/>
			<point x="16" y="374"/>
			<point x="17" y="362" type="curve" smooth="yes"/>
			<point x="18" y="349"/>
			<point x="19" y="343"/>
			<point x="-2" y="341" type="curve" smooth="yes"/>
			<point x="-4" y="341"/>
			<point x="-5" y="341"/>
			<point x="-7" y="341" type="curve" smooth="yes"/>
			<point x="-42" y="341"/>
			<point x="-65" y="376"/>
			<point x="-69" y="409" type="curve" smooth="yes"/>
			<point x="-70" y="416"/>
			<point x="-71" y="424"/>
			<point x="-71" y="432" type="curve" smooth="yes"/>
			<point x="-71" y="463"/>
			<point x="-59" y="491"/>
			<point x="1" y="496" type="curve" smooth="yes"/>
			<point x="6" y="497"/>
			<point x="10" y="497"/>
			<point x="15" y="497" type="curve" smooth="yes"/>
			<point x="57" y="497"/>
			<point x="109" y="482"/>
			<point x="155" y="480" type="curve"/>
			<point x="201" y="595"/>
			<point x="251" y="689"/>
		</contour>
	</outline>
</glyph>
<glyph name="uni05E5" format="2">
	<advance width="344"/>
	<unicode hex="05E5"/>
	<outline>
		<contour>
			<point x="86" y="-54" type="curve" smooth="yes"/>
			<point x="20" y="-238"/>
			<point x="-65" y="-382"/>
			<point x="-125" y="-410" type="curve" smooth="yes"/>
			<point x="-132" y="-414"/>
			<point x="-138" y="-415"/>
			<point x="-143" y="-415" type="curve" smooth="yes"/>
			<point x="-149" y="-415"/>
			<point x="-153" y="-413"/>
			<point x="-155" y="-409" type="curve" smooth="yes"/>
			<point x="-158" y="-406"/>
			<point x="-159" y="-402"/>
			<point x="-159" y="-398" type="curve" smooth="yes"/>
			<point x="-159" y="-390"/>
			<point x="-155" y="-381"/>
			<point x="-149" y="-375" type="curve" smooth="yes"/>
			<point x="-125" y="-351"/>
			<point x="-99" y="-313"/>
			<point x="-75" y="-261" type="curve" smooth="yes"/>
			<point x="-2" y="-106"/>
			<point x="47" y="116"/>
			<point x="50" y="165" type="curve" smooth="yes"/>
			<point x="48" y="174"/>
			<point x="26" y="174"/>
			<point x="26" y="209" type="curve" smooth="yes"/>
			<point x="26" y="211"/>
			<point x="26" y="214"/>
			<point x="26" y="217" type="curve" smooth="yes"/>
			<point x="28" y="243"/>
			<point x="47" y="279"/>
			<point x="99" y="279" type="curve" smooth="yes"/>
			<point x="119" y="279"/>
			<point x="151" y="277"/>
			<point x="156" y="240" type="curve"/>
			<point x="162" y="240"/>
			<point x="168" y="239"/>
			<point x="175" y="239" type="curve" smooth="yes"/>
			<point x="202" y="239"/>
			<point x="239" y="246"/>
			<point x="286" y="273" type="curve" smooth="yes"/>
			<point x="306" y="284"/>
			<point x="321" y="289"/>
			<point x="330" y="289" type="curve" smooth="yes"/>
			<point x="340" y="289"/>
			<point x="344" y="284"/>
			<point x="344" y="277" type="curve" smooth="yes"/>
			<point x="344" y="245"/>
			<point x="268" y="165"/>
			<point x="149" y="160" type="curve"/>
			<point x="140" y="116"/>
			<point x="123" y="49"/>
		</contour>
	</outline>
</glyph>
<glyph name="uni05E7" format="2">
	<advance width="189"/>
	<unicode hex="05E7"/>
	<outline>
		<contour>
			<point x="55" y="199" type="curve" smooth="yes"/>
			<point x="55" y="235"/>
			<point x="92" y="245"/>
			<point x="132" y="245" type="curve" smooth="yes"/>
			<point x="144" y="245"/>
			<point x="156" y="238"/>
			<point x="156" y="224" type="curve" smooth="yes"/>
			<point x="156" y="112"/>
			<point x="107" y="24"/>
			<point x="1" y="0" type="curve" smooth="yes"/>
			<point x="-96" y="-22"/>
			<point x="-216" y="-413"/>
			<point x="-317" y="-413" type="curve" smooth="yes"/>
			<point x="-338" y="-413"/>
			<point x="-354" y="-394"/>
			<point x="-354" y="-373" type="curve" smooth="yes"/>
			<point x="-354" y="-332"/>
			<point x="-324" y="-293"/>
			<point x="-297" y="-293" type="curve" smooth="yes"/>
			<point x="-280" y="-293"/>
			<point x="-278" y="-293"/>
			<point x="-268" y="-277" type="curve" smooth="yes"/>
			<point x="-186" y="-152"/>
			<point x="-110" y="5"/>
			<point x="-33" y="36" type="curve" smooth="yes"/>
			<point x="20" y="57"/>
			<point x="55" y="93"/>
		</contour>
	</outline>
</glyph>
<glyph name="uni05F3" format="2">
	<advance width="325"/>
	<unicode hex="05F3"/>
	<outline>
		<contour>
			<point x="227" y="628" type="curve" smooth="yes"/>
			<point x="231" y="634"/>
			<point x="239" y="640"/>
			<point x="252" y="640" type="curve" smooth="yes"/>
			<point x="260" y="640"/>
			<point x="270" y="638"/>
			<point x="282" y="632" type="curve" smooth="yes"/>
			<point x="297" y="625"/>
			<point x="302" y="615"/>
			<point x="302" y="607" type="curve" smooth="yes"/>
			<point x="302" y="602"/>
			<point x="301" y="598"/>
			<point x="298" y="594" type="curve" smooth="yes"/>
			<point x="268" y="550"/>
			<point x="200" y="476"/>
			<point x="165" y="469" type="curve" smooth="yes"/>
			<point x="161" y="468"/>
			<point x="158" y="467"/>
			<point x="154" y="467" type="curve" smooth="yes"/>
			<point x="139" y="467"/>
			<point x="129" y="475"/>
			<point x="129" y="486" type="curve" smooth="yes"/>
			<point x="129" y="487"/>
			<point x="130" y="489"/>
			<point x="130" y="491" type="curve" smooth="yes"/>
			<point x="136" y="508"/>
			<point x="171" y="543"/>
		</contour>
	</outline>
</glyph>
<glyph name="qudblleft_qudblleft_qudblleft" format="2">
	<advance width="0"/>
	<outline>
		<contour>
			<point x="0" y="588" type="curve" smooth="yes"/>
			<point x="0" y="602"/>
			<point x="12" y="647"/>
			<point x="18" y="673" type="curve" smooth="yes"/>
			<point x="23" y="697"/>
			<point x="46" y="699"/>
			<point x="68" y="699" type="curve" smooth="yes"/>
			<point x="69" y="699"/>
			<point x="70" y="699"/>
			<point x="71" y="699" type="curve" smooth="yes"/>
			<point x="93" y="699"/>
			<point x="108" y="699"/>
			<point x="108" y="676" type="curve" smooth="yes"/>
			<point x="108" y="631"/>
			<point x="59" y="570"/>
			<point x="22" y="570" type="curve" smooth="yes"/>
			<point x="2" y="570"/>
			<point x="0" y="575"/>
		</contour>
		<contour>
			<point x="68" y="418" type="curve" smooth="yes"/>
			<point x="68" y="433"/>
			<point x="75" y="464"/>
			<point x="80" y="491" type="curve" smooth="yes"/>
			<point x="85" y="515"/>
			<point x="108" y="516"/>
			<point x="130" y="516" type="curve" smooth="yes"/>
			<point x="131" y="516"/>
			<point x="132" y="516"/>
			<point x="134" y="516" type="curve" smooth="yes"/>
			<point x="156" y="516"/>
			<point x="170" y="516"/>
			<point x="170" y="493" type="curve" smooth="yes"/>
			<point x="170" y="449"/>
			<point x="127" y="401"/>
			<point x="90" y="401" type="curve" smooth="yes"/>
			<point x="70" y="401"/>
			<point x="68" y="406"/>
		</contour>
		<contour>
			<point x="-128" y="414" type="curve" smooth="yes"/>
			<point x="-128" y="429"/>
			<point x="-121" y="460"/>
			<point x="-116" y="486" type="curve" smooth="yes"/>
			<point x="-111" y="510"/>
			<point x="-88" y="512"/>
			<point x="-66" y="512" type="curve" smooth="yes"/>
			<point x="-65" y="512"/>
			<point x="-63" y="512"/>
			<point x="-62" y="512" type="curve" smooth="yes"/>
			<point x="-40" y="512"/>
			<point x="-26" y="512"/>
			<point x="-26" y="489" type="curve" smooth="yes"/>
			<point x="-26" y="444"/>
			<point x="-69" y="396"/>
			<point x="-106" y="396" type="curve" smooth="yes"/>
			<point x="-126" y="396"/>
			<point x="-128" y="402"/>
		</contour>
	</outline>
</glyph>
<glyph name="quotedblleft_quotedblleft" format="2">
	<advance width="0"/>
	<outline>
		<contour>
			<point x="-186" y="520" type="curve" smooth="yes"/>
			<point x="-153" y="479"/>
			<point x="-82" y="468"/>
			<point x="-38" y="468" type="curve" smooth="yes"/>
			<point x="-35" y="468"/>
			<point x="-33" y="469"/>
			<point x="-31" y="469" type="curve" smooth="yes"/>
			<point x="69" y="471"/>
			<point x="157" y="511"/>
			<point x="209" y="574" type="curve" smooth="yes"/>
			<point x="228" y="597"/>
			<point x="245" y="609"/>
			<point x="255" y="610" type="curve" smooth="yes"/>
			<point x="257" y="611"/>
			<point x="258" y="611"/>
			<point x="259" y="611" type="curve" smooth="yes"/>
			<point x="270" y="611"/>
			<point x="275" y="601"/>
			<point x="275" y="591" type="curve" smooth="yes"/>
			<point x="275" y="585"/>
			<point x="273" y="579"/>
			<point x="270" y="574" type="curve" smooth="yes"/>
			<point x="199" y="448"/>
			<point x="62" y="404"/>
			<point x="-19" y="404" type="curve" smooth="yes"/>
			<point x="-136" y="404"/>
			<point x="-197" y="439"/>
			<point x="-226" y="490" type="curve" smooth="yes"/>
			<point x="-231" y="498"/>
			<point x="-233" y="506"/>
			<point x="-233" y="513" type="curve" smooth="yes"/>
			<point x="-233" y="527"/>
			<point x="-225" y="537"/>
			<point x="-213" y="537" type="curve" smooth="yes"/>
			<point x="-205" y="537"/>
			<point x="-195" y="532"/>
		</contour>
	</outline>
</glyph>
<glyph name="uni05D2_quotesingle_uni05D5" format="2">
	<advance width="585"/>
	<outline>
		<contour>
			<point x="391" y="628" type="curve" smooth="yes"/>
			<point x="395" y="634"/>
			<point x="402" y="640"/>
			<point x="416" y="640" type="curve" smooth="yes"/>
			<point x="424" y="640"/>
			<point x="433" y="638"/>
			<point x="445" y="632" type="curve" smooth="yes"/>
			<point x="460" y="625"/>
			<point x="466" y="615"/>
			<point x="466" y="607" type="curve" smooth="yes"/>
			<point x="466" y="602"/>
			<point x="464" y="598"/>
			<point x="462" y="594" type="curve" smooth="yes"/>
			<point x="431" y="550"/>
			<point x="363" y="476"/>
			<point x="328" y="469" type="curve" smooth="yes"/>
			<point x="325" y="468"/>
			<point x="321" y="467"/>
			<point x="318" y="467" type="curve" smooth="yes"/>
			<point x="303" y="467"/>
			<point x="293" y="475"/>
			<point x="293" y="486" type="curve" smooth="yes"/>
			<point x="293" y="487"/>
			<point x="293" y="489"/>
			<point x="294" y="491" type="curve" smooth="yes"/>
			<point x="299" y="508"/>
			<point x="335" y="543"/>
		</contour>
		<contour>
			<point x="168" y="53" type="curve" smooth="yes"/>
			<point x="221" y="53"/>
			<point x="287" y="11"/>
			<point x="332" y="11" type="curve" smooth="yes"/>
			<point x="415" y="11"/>
			<point x="451" y="111"/>
			<point x="451" y="198" type="curve" smooth="yes"/>
			<point x="451" y="234"/>
			<point x="490" y="244"/>
			<point x="530" y="244" type="curve" smooth="yes"/>
			<point x="541" y="244"/>
			<point x="552" y="237"/>
			<point x="552" y="223" type="curve" smooth="yes"/>
			<point x="552" y="102"/>
			<point x="441" y="-41"/>
			<point x="325" y="-41" type="curve" smooth="yes"/>
			<point x="285" y="-41"/>
			<point x="227" y="-6"/>
			<point x="187" y="-6" type="curve" smooth="yes"/>
			<point x="155" y="-6"/>
			<point x="92" y="-38"/>
			<point x="51" y="-38" type="curve" smooth="yes"/>
			<point x="-49" y="-38"/>
			<point x="-126" y="14"/>
			<point x="-126" y="38" type="curve" smooth="yes"/>
			<point x="-126" y="45"/>
			<point x="-124" y="48"/>
			<point x="-115" y="48" type="curve" smooth="yes"/>
			<point x="-76" y="48"/>
			<point x="-50" y="18"/>
			<point x="6" y="18" type="curve" smooth="yes"/>
			<point x="73" y="18"/>
			<point x="118" y="53"/>
		</contour>
		<contour>
			<point x="177" y="338" type="curve" smooth="yes"/>
			<point x="177" y="312"/>
			<point x="135" y="223"/>
			<point x="92" y="157" type="curve" smooth="yes"/>
			<point x="66" y="115"/>
			<point x="40" y="82"/>
			<point x="24" y="82" type="curve" smooth="yes"/>
			<point x="3" y="82"/>
			<point x="3" y="88"/>
			<point x="3" y="100" type="curve" smooth="yes"/>
			<point x="3" y="115"/>
			<point x="60" y="238"/>
			<point x="87" y="336" type="curve" smooth="yes"/>
			<point x="93" y="359"/>
			<point x="115" y="361"/>
			<point x="137" y="361" type="curve" smooth="yes"/>
			<point x="138" y="361"/>
			<point x="139" y="361"/>
			<point x="140" y="361" type="curve" smooth="yes"/>
			<point x="142" y="361"/>
			<point x="144" y="361"/>
			<point x="146" y="361" type="curve" smooth="yes"/>
			<point x="165" y="361"/>
			<point x="177" y="360"/>
		</contour>
	</outline>
</glyph>
<glyph name="uni05D2_uni05F3" format="2">
	<advance width="585"/>
	<outline>
		<contour>
			<point x="333" y="628" type="curve" smooth="yes"/>
			<point x="337" y="634"/>
			<point x="345" y="640"/>
			<point x="358" y="640" type="curve" smooth="yes"/>
			<point x="366" y="640"/>
			<point x="376" y="638"/>
			<point x="387" y="632" type="curve" smooth="yes"/>
			<point x="403" y="625"/>
			<point x="408" y="615"/>
			<point x="408" y="607" type="curve" smooth="yes"/>
			<point x="408" y="602"/>
			<point x="406" y="598"/>
			<point x="404" y="594" type="curve" smooth="yes"/>
			<point x="373" y="550"/>
			<point x="305" y="476"/>
			<point x="270" y="469" type="curve" smooth="yes"/>
			<point x="267" y="468"/>
			<point x="263" y="467"/>
			<point x="260" y="467" type="curve" smooth="yes"/>
			<point x="245" y="467"/>
			<point x="235" y="475"/>
			<point x="235" y="486" type="curve" smooth="yes"/>
			<point x="235" y="487"/>
			<point x="235" y="489"/>
			<point x="236" y="491" type="curve" smooth="yes"/>
			<point x="241" y="508"/>
			<point x="277" y="543"/>
		</contour>
		<contour>
			<point x="168" y="53" type="curve" smooth="yes"/>
			<point x="221" y="53"/>
			<point x="287" y="11"/>
			<point x="332" y="11" type="curve" smooth="yes"/>
			<point x="415" y="11"/>
			<point x="451" y="111"/>
			<point x="451" y="198" type="curve" smooth="yes"/>
			<point x="451" y="234"/>
			<point x="490" y="244"/>
			<point x="530" y="244" type="curve" smooth="yes"/>
			<point x="541" y="244"/>
			<point x="552" y="237"/>
			<point x="552" y="223" type="curve" smooth="yes"/>
			<point x="552" y="102"/>
			<point x="441" y="-41"/>
			<point x="325" y="-41" type="curve" smooth="yes"/>
			<point x="285" y="-41"/>
			<point x="227" y="-6"/>
			<point x="187" y="-6" type="curve" smooth="yes"/>
			<point x="155" y="-6"/>
			<point x="92" y="-38"/>
			<point x="51" y="-38" type="curve" smooth="yes"/>
			<point x="-49" y="-38"/>
			<point x="-126" y="14"/>
			<point x="-126" y="38" type="curve" smooth="yes"/>
			<point x="-126" y="45"/>
			<point x="-124" y="48"/>
			<point x="-115" y="48" type="curve" smooth="yes"/>
			<point x="-76" y="48"/>
			<point x="-50" y="18"/>
			<point x="6" y="18" type="curve" smooth="yes"/>
			<point x="73" y="18"/>
			<point x="118" y="53"/>
		</contour>
	</outline>
</glyph>
<glyph name="uni05D3.alt" format="2">
	<advance width="333"/>
	<outline>
		<contour>
			<point x="83" y="290" type="curve" smooth="yes"/>
			<point x="112" y="291"/>
			<point x="159" y="304"/>
			<point x="202" y="304" type="curve" smooth="yes"/>
			<point x="254" y="304"/>
			<point x="301" y="284"/>
			<point x="301" y="199" type="curve" smooth="yes"/>
			<point x="301" y="193"/>
			<point x="301" y="187"/>
			<point x="301" y="180" type="curve" smooth="yes"/>
			<point x="294" y="87"/>
			<point x="235" y="0"/>
			<point x="136" y="0" type="curve" smooth="yes"/>
			<point x="116" y="0"/>
			<point x="108" y="8"/>
			<point x="108" y="18" type="curve" smooth="yes"/>
			<point x="108" y="28"/>
			<point x="118" y="40"/>
			<point x="129" y="42" type="curve" smooth="yes"/>
			<point x="174" y="50"/>
			<point x="203" y="98"/>
			<point x="210" y="170" type="curve" smooth="yes"/>
			<point x="211" y="177"/>
			<point x="211" y="184"/>
			<point x="211" y="190" type="curve" smooth="yes"/>
			<point x="211" y="238"/>
			<point x="187" y="252"/>
			<point x="153" y="252" type="curve" smooth="yes"/>
			<point x="117" y="252"/>
			<point x="70" y="237"/>
			<point x="29" y="233" type="curve" smooth="yes"/>
			<point x="21" y="232"/>
			<point x="14" y="231"/>
			<point x="7" y="231" type="curve" smooth="yes"/>
			<point x="-41" y="231"/>
			<point x="-59" y="251"/>
			<point x="-59" y="272" type="curve" smooth="yes"/>
			<point x="-59" y="289"/>
			<point x="-46" y="307"/>
			<point x="-28" y="312" type="curve" smooth="yes"/>
			<point x="-21" y="313"/>
			<point x="-15" y="314"/>
			<point x="-11" y="314" type="curve" smooth="yes"/>
			<point x="15" y="314"/>
			<point x="14" y="290"/>
			<point x="80" y="290" type="curve" smooth="yes"/>
			<point x="81" y="290"/>
			<point x="82" y="290"/>
		</contour>
	</outline>
</glyph>
<glyph name="uni05E1_quotesingle" format="2">
	<advance width="594"/>
	<outline>
		<contour>
			<point x="121" y="41" type="curve" smooth="yes"/>
			<point x="218" y="66"/>
			<point x="249" y="205"/>
			<point x="264" y="255" type="curve" smooth="yes"/>
			<point x="270" y="278"/>
			<point x="292" y="279"/>
			<point x="314" y="279" type="curve" smooth="yes"/>
			<point x="315" y="279"/>
			<point x="315" y="279"/>
			<point x="316" y="279" type="curve" smooth="yes"/>
			<point x="338" y="279"/>
			<point x="354" y="279"/>
			<point x="354" y="256" type="curve" smooth="yes"/>
			<point x="354" y="256"/>
			<point x="354" y="255"/>
			<point x="354" y="255" type="curve"/>
			<point x="379" y="270"/>
			<point x="408" y="279"/>
			<point x="439" y="279" type="curve"/>
			<point x="528" y="279"/>
			<point x="560" y="229"/>
			<point x="560" y="176" type="curve" smooth="yes"/>
			<point x="560" y="172"/>
			<point x="560" y="168"/>
			<point x="560" y="164" type="curve" smooth="yes"/>
			<point x="550" y="58"/>
			<point x="443" y="0"/>
			<point x="355" y="0" type="curve" smooth="yes"/>
			<point x="306" y="0"/>
			<point x="279" y="29"/>
			<point x="263" y="61" type="curve"/>
			<point x="213" y="5"/>
			<point x="151" y="-19"/>
			<point x="94" y="-19" type="curve" smooth="yes"/>
			<point x="9" y="-19"/>
			<point x="-63" y="37"/>
			<point x="-63" y="125" type="curve" smooth="yes"/>
			<point x="-63" y="168"/>
			<point x="-46" y="220"/>
			<point x="-4" y="276" type="curve" smooth="yes"/>
			<point x="16" y="303"/>
			<point x="37" y="316"/>
			<point x="50" y="316" type="curve" smooth="yes"/>
			<point x="58" y="316"/>
			<point x="63" y="311"/>
			<point x="63" y="302" type="curve" smooth="yes"/>
			<point x="63" y="292"/>
			<point x="57" y="278"/>
			<point x="45" y="258" type="curve" smooth="yes"/>
			<point x="13" y="211"/>
			<point x="-1" y="166"/>
			<point x="-1" y="128" type="curve" smooth="yes"/>
			<point x="-1" y="73"/>
			<point x="30" y="36"/>
			<point x="84" y="36" type="curve" smooth="yes"/>
			<point x="95" y="36"/>
			<point x="108" y="38"/>
		</contour>
		<contour>
			<point x="312" y="136" type="curve" smooth="yes"/>
			<point x="309" y="128"/>
			<point x="308" y="120"/>
			<point x="308" y="111" type="curve" smooth="yes"/>
			<point x="308" y="79"/>
			<point x="326" y="46"/>
			<point x="357" y="46" type="curve" smooth="yes"/>
			<point x="422" y="46"/>
			<point x="470" y="108"/>
			<point x="474" y="164" type="curve" smooth="yes"/>
			<point x="474" y="166"/>
			<point x="474" y="169"/>
			<point x="474" y="172" type="curve" smooth="yes"/>
			<point x="474" y="214"/>
			<point x="446" y="228"/>
			<point x="422" y="229" type="curve" smooth="yes"/>
			<point x="417" y="230"/>
			<point x="412" y="230"/>
			<point x="408" y="230" type="curve" smooth="yes"/>
			<point x="342" y="230"/>
			<point x="329" y="192"/>
		</contour>
		<contour>
			<point x="170" y="628" type="curve" smooth="yes"/>
			<point x="174" y="634"/>
			<point x="182" y="640"/>
			<point x="196" y="640" type="curve" smooth="yes"/>
			<point x="203" y="640"/>
			<point x="213" y="638"/>
			<point x="225" y="632" type="curve" smooth="yes"/>
			<point x="240" y="625"/>
			<point x="245" y="615"/>
			<point x="245" y="607" type="curve" smooth="yes"/>
			<point x="245" y="602"/>
			<point x="244" y="598"/>
			<point x="242" y="594" type="curve" smooth="yes"/>
			<point x="211" y="550"/>
			<point x="143" y="476"/>
			<point x="108" y="469" type="curve" smooth="yes"/>
			<point x="104" y="468"/>
			<point x="101" y="467"/>
			<point x="98" y="467" type="curve" smooth="yes"/>
			<point x="83" y="467"/>
			<point x="73" y="475"/>
			<point x="73" y="486" type="curve" smooth="yes"/>
			<point x="73" y="487"/>
			<point x="73" y="489"/>
			<point x="73" y="491" type="curve" smooth="yes"/>
			<point x="79" y="508"/>
			<point x="114" y="543"/>
		</contour>
	</outline>
</glyph>
<glyph name="uni05E4_quotesingle" format="2">
	<advance width="387"/>
	<outline>
		<contour>
			<point x="-13" y="98" type="curve" smooth="yes"/>
			<point x="-13" y="112"/>
			<point x="7" y="157"/>
			<point x="35" y="254" type="curve" smooth="yes"/>
			<point x="41" y="277"/>
			<point x="62" y="279"/>
			<point x="85" y="279" type="curve" smooth="yes"/>
			<point x="86" y="279"/>
			<point x="87" y="279"/>
			<point x="88" y="279" type="curve" smooth="yes"/>
			<point x="110" y="279"/>
			<point x="125" y="279"/>
			<point x="125" y="256" type="curve" smooth="yes"/>
			<point x="125" y="253"/>
			<point x="125" y="251"/>
			<point x="124" y="248" type="curve"/>
			<point x="150" y="265"/>
			<point x="184" y="279"/>
			<point x="219" y="279" type="curve" smooth="yes"/>
			<point x="315" y="279"/>
			<point x="354" y="238"/>
			<point x="354" y="154" type="curve" smooth="yes"/>
			<point x="354" y="73"/>
			<point x="289" y="-45"/>
			<point x="83" y="-45" type="curve" smooth="yes"/>
			<point x="-25" y="-45"/>
			<point x="-238" y="-65"/>
			<point x="-312" y="-105" type="curve" smooth="yes"/>
			<point x="-313" y="-106"/>
			<point x="-315" y="-106"/>
			<point x="-317" y="-106" type="curve" smooth="yes"/>
			<point x="-322" y="-106"/>
			<point x="-325" y="-100"/>
			<point x="-325" y="-94" type="curve" smooth="yes"/>
			<point x="-325" y="-67"/>
			<point x="-262" y="-31"/>
			<point x="-167" y="-14" type="curve" smooth="yes"/>
			<point x="-65" y="4"/>
			<point x="52" y="4"/>
			<point x="85" y="7" type="curve" smooth="yes"/>
			<point x="213" y="16"/>
			<point x="264" y="85"/>
			<point x="268" y="147" type="curve" smooth="yes"/>
			<point x="268" y="150"/>
			<point x="268" y="154"/>
			<point x="268" y="157" type="curve" smooth="yes"/>
			<point x="268" y="216"/>
			<point x="235" y="232"/>
			<point x="194" y="232" type="curve" smooth="yes"/>
			<point x="163" y="232"/>
			<point x="131" y="214"/>
			<point x="110" y="197" type="curve"/>
			<point x="87" y="141"/>
			<point x="41" y="80"/>
			<point x="9" y="80" type="curve" smooth="yes"/>
			<point x="-13" y="80"/>
			<point x="-13" y="86"/>
		</contour>
		<contour>
			<point x="278" y="628" type="curve" smooth="yes"/>
			<point x="282" y="634"/>
			<point x="290" y="640"/>
			<point x="304" y="640" type="curve" smooth="yes"/>
			<point x="311" y="640"/>
			<point x="321" y="638"/>
			<point x="333" y="632" type="curve" smooth="yes"/>
			<point x="348" y="625"/>
			<point x="353" y="615"/>
			<point x="353" y="607" type="curve" smooth="yes"/>
			<point x="353" y="602"/>
			<point x="352" y="598"/>
			<point x="349" y="594" type="curve" smooth="yes"/>
			<point x="319" y="550"/>
			<point x="251" y="476"/>
			<point x="216" y="469" type="curve" smooth="yes"/>
			<point x="212" y="468"/>
			<point x="209" y="467"/>
			<point x="206" y="467" type="curve" smooth="yes"/>
			<point x="191" y="467"/>
			<point x="181" y="475"/>
			<point x="181" y="486" type="curve" smooth="yes"/>
			<point x="181" y="487"/>
			<point x="181" y="489"/>
			<point x="181" y="491" type="curve" smooth="yes"/>
			<point x="187" y="508"/>
			<point x="222" y="543"/>
		</contour>
	</outline>
</glyph>
<glyph name="uni05E6.alt" format="2">
	<advance width="216"/>
	<outline>
		<contour>
			<point x="58" y="199" type="curve" smooth="yes"/>
			<point x="50" y="205"/>
			<point x="34" y="219"/>
			<point x="34" y="246" type="curve" smooth="yes"/>
			<point x="34" y="247"/>
			<point x="34" y="247"/>
			<point x="35" y="248" type="curve" smooth="yes"/>
			<point x="35" y="272"/>
			<point x="51" y="311"/>
			<point x="101" y="311" type="curve" smooth="yes"/>
			<point x="114" y="311"/>
			<point x="128" y="307"/>
			<point x="140" y="300" type="curve"/>
			<point x="152" y="308"/>
			<point x="170" y="318"/>
			<point x="197" y="387" type="curve" smooth="yes"/>
			<point x="204" y="407"/>
			<point x="216" y="412"/>
			<point x="226" y="412" type="curve" smooth="yes"/>
			<point x="229" y="412"/>
			<point x="232" y="412"/>
			<point x="234" y="411" type="curve" smooth="yes"/>
			<point x="243" y="409"/>
			<point x="249" y="393"/>
			<point x="249" y="370" type="curve" smooth="yes"/>
			<point x="249" y="327"/>
			<point x="228" y="260"/>
			<point x="161" y="210" type="curve"/>
			<point x="152" y="55"/>
			<point x="35" y="0"/>
			<point x="-86" y="0" type="curve"/>
			<point x="-98" y="0"/>
			<point x="-106" y="7"/>
			<point x="-106" y="16" type="curve" smooth="yes"/>
			<point x="-106" y="29"/>
			<point x="-90" y="45"/>
			<point x="-47" y="51" type="curve" smooth="yes"/>
			<point x="16" y="60"/>
			<point x="60" y="97"/>
			<point x="60" y="190" type="curve" smooth="yes"/>
			<point x="60" y="192"/>
			<point x="60" y="195"/>
			<point x="60" y="198" type="curve" smooth="yes"/>
			<point x="59" y="198"/>
			<point x="58" y="199"/>
		</contour>
	</outline>
</glyph>
